C:\Users\israe\Dropbox\PhDWork\ExperimentalData\subject9\055\P9S055W03_filtered35.mot
nRows=10
nColumns=28

name C:\Users\israe\Dropbox\PhDWork\ExperimentalData\subject9\055\P9S055W03_filtered35.mot
datacolumns 28
datarows 10
range 1.6950000000 1.7040000000
endheader
time	ground_force_1_vx	ground_force_1_vy	ground_force_1_vz	ground_force_1_px	ground_force_1_py	ground_force_1_pz	ground_moment_1_mx	ground_moment_1_my	ground_moment_1_mz	ground_force_2_vx	ground_force_2_vy	ground_force_2_vz	ground_force_2_px	ground_force_2_py	ground_force_2_pz	ground_moment_2_mx	ground_moment_2_my	ground_moment_2_mz	ground_force_3_vx	ground_force_3_vy	ground_force_3_vz	ground_force_3_px	ground_force_3_py	ground_force_3_pz	ground_moment_3_mx	ground_moment_3_my	ground_moment_3_mz
        1.6950000000	        0.0000000000	        0.0000000000	       -0.0000000000	        0.1988394961	        0.0000558755	       -0.3004071324	       -0.0000000000	       -0.0000000000	       -0.0000000000	      -31.5169446926	      548.7087481531	      130.3193753355	        0.2029003516	       -0.0000795827	        0.4543649445	      -55.4592742037	      -16.5474292733	       47.0309624466	       -6.7591764802	      666.2916348581	     -134.3214850782	        0.2076431971	        0.0000770316	        1.3583900146	      175.8340850640	      -13.3825300510	      -52.0926849690	
        1.6960000000	        0.0000000000	        0.0000000000	       -0.0000000000	        0.1988394961	        0.0000558755	       -0.3004071324	       -0.0000000000	       -0.0000000000	       -0.0000000000	      -30.9015498038	      541.1715266371	      129.0131544202	        0.2029003516	       -0.0000795827	        0.4543649445	      -54.9376454192	      -16.3874130132	       46.4197312873	       -4.6569000500	      674.2827580733	     -136.1732514102	        0.2076431971	        0.0000770316	        1.3583900146	      177.5031814798	      -14.0258846608	      -52.8758397178	
        1.6970000000	        0.0000000000	        0.0000000000	       -0.0000000000	        0.1988394961	        0.0000558755	       -0.3004071324	       -0.0000000000	       -0.0000000000	       -0.0000000000	      -30.2933816367	      533.5670208763	      127.6733956729	        0.2029003516	       -0.0000795827	        0.4543649445	      -54.4037458291	      -16.2238952415	       45.8060590812	       -2.5350140756	      681.8424454173	     -137.9154464541	        0.2076431971	        0.0000770316	        1.3583900146	      179.0438278008	      -14.6575335633	      -53.6338556561	
        1.6980000000	        0.0000000000	        0.0000000000	       -0.0000000000	        0.1988394961	        0.0000558755	       -0.3004071324	       -0.0000000000	       -0.0000000000	       -0.0000000000	      -29.6909158723	      525.9060687434	      126.3043370673	        0.2029003516	       -0.0000795827	        0.4543649445	      -53.8570769026	      -16.0574565799	       45.1892888441	       -0.3941949962	      689.0135214934	     -139.5594017612	        0.2076431971	        0.0000770316	        1.3583900146	      180.4650541106	      -15.2791377369	      -54.3702550106	
        1.6990000000	        0.0000000000	        0.0000000000	        0.0000000000	        0.1988394961	        0.0000558755	       -0.3004071324	        0.0000000000	       -0.0000000000	       -0.0000000000	      -29.0917215369	      518.1986138349	      124.9116267259	        0.2029003516	       -0.0000795827	        0.4543649445	      -53.2973705737	      -15.8885313105	       44.5686932293	        1.7683231660	      695.8461264402	     -141.1189575042	        0.2076431971	        0.0000770316	        1.3583900146	      181.7772085974	      -15.8932840656	      -55.0894359581	
        1.7000000000	       -0.0000000000	        0.0000000000	        0.0000000000	        0.1988394961	        0.0000558755	       -0.3004071324	        0.0000000000	        0.0000000000	        0.0000000000	      -28.4928254683	      510.4534386269	      123.5016048719	        0.2029003516	       -0.0000795827	        0.4543649445	      -52.7251251839	      -15.7174790112	       43.9436866291	        3.9587755374	      702.3943205479	     -142.6098806227	        0.2076431971	        0.0000770316	        1.3583900146	      182.9919849573	      -16.5034021302	      -55.7962449656	
        1.7010000000	       -0.0000000000	        0.0000000000	        0.0000000000	        0.1988394961	        0.0000558755	       -0.3004071324	        0.0000000000	        0.0000000000	        0.0000000000	      -27.8914800171	      502.6782972609	      122.0799554502	        0.2029003516	       -0.0000795827	        0.4543649445	      -52.1419437049	      -15.5445088952	       43.3140703179	        6.1856554139	      708.7146388318	     -144.0492835372	        0.2076431971	        0.0000770316	        1.3583900146	      184.1221943883	      -17.1137141746	      -56.4958148469	
        1.7020000000	       -0.0000000000	        0.0000000000	        0.0000000000	        0.1988394961	        0.0000558755	       -0.3004071324	        0.0000000000	        0.0000000000	        0.0000000000	      -27.2858951911	      494.8795010393	      120.6504600681	        0.2029003516	       -0.0000795827	        0.4543649445	      -51.5502252891	      -15.3695688877	       42.6799918191	        8.4585292282	      714.8660254681	     -145.4555965166	        0.2076431971	        0.0000770316	        1.3583900146	      185.1813296146	      -17.7291851210	      -57.1936925199	
        1.7030000000	       -0.0000000000	        0.0000000000	        0.0000000000	        0.1988394961	        0.0000558755	       -0.3004071324	        0.0000000000	        0.0000000000	        0.0000000000	      -26.6756913318	      487.0620665845	      119.2144305196	        0.2029003516	       -0.0000795827	        0.4543649445	      -50.9521527771	      -15.1922252853	       42.0418366395	       10.7881273490	      720.9099140504	     -146.8489933860	        0.2076431971	        0.0000770316	        1.3583900146	      186.1830935367	      -18.3552775180	      -57.8958917466	
        1.7040000000	       -0.0000000000	        0.0000000000	        0.0000000000	        0.1988394961	        0.0000558755	       -0.3004071324	        0.0000000000	        0.0000000000	        0.0000000000	      -26.0621451467	      479.2305177844	      117.7708958192	        0.2029003516	       -0.0000795827	        0.4543649445	      -50.3489370836	      -15.0116763171	       41.4002101238	       13.1869748496	      726.9105017606	     -148.2517775054	        0.2076431971	        0.0000770316	        1.3583900146	      187.1408155169	      -18.9977422856	      -58.6086706573	
